<svg width="665" height="560" viewBox="0 0 665 560" fill="none" xmlns="http://www.w3.org/2000/svg">
<path d="M268 252.5H411C417.351 252.5 422.5 257.649 422.5 264V324C422.5 330.351 417.351 335.5 411 335.5H268C261.649 335.5 256.5 330.351 256.5 324V264L256.515 263.408C256.823 257.332 261.847 252.5 268 252.5Z" fill="white"/>
<path d="M268 252.5H411C417.351 252.5 422.5 257.649 422.5 264V324C422.5 330.351 417.351 335.5 411 335.5H268C261.649 335.5 256.5 330.351 256.5 324V264L256.515 263.408C256.823 257.332 261.847 252.5 268 252.5Z" stroke="#00C950"/>
<path d="M278.889 288L284.389 274H286.309L291.809 288H289.649L288.309 284.44H282.389L281.049 288H278.889ZM283.069 282.62H287.629L285.349 276.6L283.069 282.62ZM298.059 288V277.92H299.999V279.86C300.459 278.52 301.259 277.92 302.679 277.92H303.899V279.6H302.439C300.599 279.6 299.999 281.24 299.999 283.44V288H298.059ZM309.567 288.16C306.447 288.16 304.527 285.7 304.527 282.9C304.527 280.08 306.287 277.76 309.387 277.76C312.487 277.76 314.147 279.98 314.147 282.54C314.147 282.8 314.127 283.14 314.107 283.32H306.427C306.587 285.2 307.827 286.5 309.567 286.5C311.047 286.5 312.007 285.86 312.287 284.72H314.227C313.887 286.8 312.067 288.16 309.567 288.16ZM306.487 281.82H312.187C312.067 280.28 311.047 279.32 309.387 279.32C307.827 279.32 306.787 280.18 306.487 281.82ZM316.399 292.08V277.92H318.339V279.4C318.959 278.4 320.219 277.76 321.559 277.76C324.599 277.76 326.339 279.98 326.339 282.96C326.339 285.94 324.599 288.16 321.579 288.16C320.219 288.16 318.939 287.5 318.339 286.5V292.08H316.399ZM321.279 286.46C323.139 286.46 324.379 285.06 324.379 282.96C324.379 280.86 323.139 279.46 321.279 279.46C319.419 279.46 318.179 280.86 318.179 282.96C318.179 285.06 319.419 286.46 321.279 286.46ZM332.907 288.16C329.787 288.16 327.867 285.7 327.867 282.9C327.867 280.08 329.627 277.76 332.727 277.76C335.827 277.76 337.487 279.98 337.487 282.54C337.487 282.8 337.467 283.14 337.447 283.32H329.767C329.927 285.2 331.167 286.5 332.907 286.5C334.387 286.5 335.347 285.86 335.627 284.72H337.567C337.227 286.8 335.407 288.16 332.907 288.16ZM329.827 281.82H335.527C335.407 280.28 334.387 279.32 332.727 279.32C331.167 279.32 330.127 280.18 329.827 281.82ZM342.698 288.16C340.638 288.16 339.258 286.92 339.258 285.12C339.258 283.18 340.818 281.9 343.178 281.9H345.298C345.758 281.9 345.978 281.74 345.978 281.38C345.978 280.16 345.078 279.32 343.538 279.32C342.118 279.32 341.118 280.2 341.058 281.22H339.258C339.418 279.24 341.198 277.76 343.598 277.76C346.198 277.76 347.898 279.26 347.898 281.5V288H345.978V286.34C345.478 287.44 344.218 288.16 342.698 288.16ZM343.078 286.62C344.898 286.62 345.978 285.44 345.978 283.58V283.4H343.378C342.058 283.4 341.198 284.02 341.198 285.08C341.198 286 341.938 286.62 343.078 286.62ZM354.661 288C352.621 288 351.301 286.76 351.301 284.7V279.6H349.241V277.92H351.301V274.76H353.241V277.92H356.221V279.6H353.241V284.64C353.241 285.72 353.841 286.32 354.801 286.32H356.221V288H354.661ZM361.097 288.16C359.037 288.16 357.657 286.92 357.657 285.12C357.657 283.18 359.217 281.9 361.577 281.9H363.697C364.157 281.9 364.377 281.74 364.377 281.38C364.377 280.16 363.477 279.32 361.937 279.32C360.517 279.32 359.517 280.2 359.457 281.22H357.657C357.817 279.24 359.597 277.76 361.997 277.76C364.597 277.76 366.297 279.26 366.297 281.5V288H364.377V286.34C363.877 287.44 362.617 288.16 361.097 288.16ZM361.477 286.62C363.297 286.62 364.377 285.44 364.377 283.58V283.4H361.777C360.457 283.4 359.597 284.02 359.597 285.08C359.597 286 360.337 286.62 361.477 286.62ZM374.176 288.16C372.816 288.16 371.536 287.5 370.936 286.5V288H368.996V273.7H370.936V279.4C371.556 278.4 372.816 277.76 374.156 277.76C377.196 277.76 378.936 279.98 378.936 282.96C378.936 285.94 377.196 288.16 374.176 288.16ZM373.876 286.46C375.736 286.46 376.976 285.06 376.976 282.96C376.976 280.86 375.736 279.46 373.876 279.46C372.016 279.46 370.776 280.86 370.776 282.96C370.776 285.06 372.016 286.46 373.876 286.46ZM381.145 288V273.7H383.085V288H381.145ZM390.27 288.16C387.15 288.16 385.23 285.7 385.23 282.9C385.23 280.08 386.99 277.76 390.09 277.76C393.19 277.76 394.85 279.98 394.85 282.54C394.85 282.8 394.83 283.14 394.81 283.32H387.13C387.29 285.2 388.53 286.5 390.27 286.5C391.75 286.5 392.71 285.86 392.99 284.72H394.93C394.59 286.8 392.77 288.16 390.27 288.16ZM387.19 281.82H392.89C392.77 280.28 391.75 279.32 390.09 279.32C388.53 279.32 387.49 280.18 387.19 281.82ZM283.444 316.16C280.044 316.16 276.864 313.76 276.864 309C276.864 304.24 280.064 301.84 283.724 301.84C287.064 301.84 289.544 303.76 289.844 306.54H287.604C287.304 304.82 285.804 303.68 283.704 303.68C281.004 303.68 278.984 305.6 278.984 309C278.984 312.48 281.004 314.32 283.724 314.32C285.984 314.32 287.784 313.02 287.784 311.4C287.784 310.72 287.464 310.36 286.824 310.36H283.804V308.68H287.464C288.884 308.68 289.784 309.56 289.784 311V316H287.884V314.02C287.224 315.16 285.604 316.16 283.444 316.16ZM294.862 316V303.84H290.482V302H301.322V303.84H296.942V316H294.862ZM303.151 316V302H305.711L310.171 313.16L314.631 302H317.191V316H315.191V305.58L311.011 316H309.331L305.131 305.58V316H303.151ZM325.026 316V302H334.006V303.84H327.106V308.02H332.686V309.86H327.106V316H325.026ZM335.803 316V301.7H337.743V316H335.803ZM341.728 320.08L343.148 316.16L339.488 305.92H341.468L344.088 313.64L346.688 305.92H348.688L343.628 320.08H341.728ZM352.531 316L349.411 305.92H351.351L353.431 313.42L355.711 305.92H357.551L359.811 313.42L361.871 305.92H363.831L360.711 316H358.911L356.631 308.48L354.331 316H352.531ZM365.627 316V301.7H367.567V307.7C368.107 306.44 369.307 305.76 370.807 305.76C373.087 305.76 374.567 307.4 374.567 309.8V316H372.627V310.18C372.627 308.58 371.687 307.5 370.267 307.5C368.687 307.5 367.567 308.78 367.567 310.54V316H365.627ZM381.628 316.16C378.508 316.16 376.588 313.7 376.588 310.9C376.588 308.08 378.348 305.76 381.448 305.76C384.548 305.76 386.208 307.98 386.208 310.54C386.208 310.8 386.188 311.14 386.168 311.32H378.488C378.648 313.2 379.888 314.5 381.628 314.5C383.108 314.5 384.068 313.86 384.348 312.72H386.288C385.948 314.8 384.128 316.16 381.628 316.16ZM378.548 309.82H384.248C384.128 308.28 383.108 307.32 381.448 307.32C379.888 307.32 378.848 308.18 378.548 309.82ZM392.819 316.16C389.699 316.16 387.779 313.7 387.779 310.9C387.779 308.08 389.539 305.76 392.639 305.76C395.739 305.76 397.399 307.98 397.399 310.54C397.399 310.8 397.379 311.14 397.359 311.32H389.679C389.839 313.2 391.079 314.5 392.819 314.5C394.299 314.5 395.259 313.86 395.539 312.72H397.479C397.139 314.8 395.319 316.16 392.819 316.16ZM389.739 309.82H395.439C395.319 308.28 394.299 307.32 392.639 307.32C391.079 307.32 390.039 308.18 389.739 309.82ZM399.65 316V301.7H401.59V316H399.65Z" fill="#27272A"/>
<circle cx="339.5" cy="294" r="265.5" stroke="#00C950"/>
<path d="M253 0.5H424C430.351 0.5 435.5 5.64873 435.5 12V62C435.5 68.3513 430.351 73.5 424 73.5H253C246.649 73.5 241.5 68.3513 241.5 62V12C241.5 5.8472 246.332 0.822651 252.408 0.514648L253 0.5Z" fill="white"/>
<path d="M253 0.5H424C430.351 0.5 435.5 5.64873 435.5 12V62C435.5 68.3513 430.351 73.5 424 73.5H253C246.649 73.5 241.5 68.3513 241.5 62V12C241.5 5.8472 246.332 0.822651 252.408 0.514648L253 0.5Z" stroke="#00C950"/>
<rect x="255.5" y="14.5" width="25" height="25" rx="5.5" fill="#FFFBEB"/>
<rect x="255.5" y="14.5" width="25" height="25" rx="5.5" stroke="#FE9A00"/>
<path d="M265.532 31.0266V30.2533C263.998 29.3266 262.738 27.52 262.738 25.6C262.738 22.3 265.772 19.7133 269.198 20.46C270.705 20.7933 272.025 21.7933 272.712 23.1733C274.105 25.9733 272.638 28.9466 270.485 30.2466V31.02C270.485 31.2133 270.558 31.66 269.845 31.66H266.172C265.438 31.6666 265.532 31.38 265.532 31.0266Z" stroke="#FE9A00" stroke-linecap="round" stroke-linejoin="round"/>
<path d="M265.668 33.6663C267.195 33.233 268.808 33.233 270.335 33.6663" stroke="#FE9A00" stroke-linecap="round" stroke-linejoin="round"/>
<path d="M290.12 32V22.2H293.13C295.86 22.2 298.072 23.908 298.072 27.1C298.072 30.292 295.86 32 293.13 32H290.12ZM293.046 30.712C294.866 30.712 296.574 29.69 296.574 27.1C296.574 24.51 294.866 23.488 293.046 23.488H291.576V30.712H293.046ZM302.698 32.112C300.514 32.112 299.17 30.39 299.17 28.43C299.17 26.456 300.402 24.832 302.572 24.832C304.742 24.832 305.904 26.386 305.904 28.178C305.904 28.36 305.89 28.598 305.876 28.724H300.5C300.612 30.04 301.48 30.95 302.698 30.95C303.734 30.95 304.406 30.502 304.602 29.704H305.96C305.722 31.16 304.448 32.112 302.698 32.112ZM300.542 27.674H304.532C304.448 26.596 303.734 25.924 302.572 25.924C301.48 25.924 300.752 26.526 300.542 27.674ZM313.643 24.944V32H312.285V26.12H309.387V32H308.029V26.12H306.587V24.944H308.029V24.258C308.029 22.872 308.939 21.99 310.353 21.99H311.529V23.166H310.465C309.807 23.166 309.387 23.6 309.387 24.3V24.944H313.643ZM315.615 32V24.944H316.973V26.19C317.351 25.308 318.191 24.832 319.241 24.832C320.837 24.832 321.873 25.98 321.873 27.66V32H320.515V27.926C320.515 26.806 319.857 26.05 318.863 26.05C317.757 26.05 316.973 26.946 316.973 28.178V32H315.615ZM326.816 32.112C324.632 32.112 323.288 30.39 323.288 28.43C323.288 26.456 324.52 24.832 326.69 24.832C328.86 24.832 330.022 26.386 330.022 28.178C330.022 28.36 330.008 28.598 329.994 28.724H324.618C324.73 30.04 325.598 30.95 326.816 30.95C327.852 30.95 328.524 30.502 328.72 29.704H330.078C329.84 31.16 328.566 32.112 326.816 32.112ZM324.66 27.674H328.65C328.566 26.596 327.852 25.924 326.69 25.924C325.598 25.924 324.87 26.526 324.66 27.674Z" fill="#27272A"/>
<path d="M255 48H422" stroke="#E4E4E7"/>
<circle cx="257" cy="58" r="2" fill="#71717B"/>
<path d="M264.02 70V61.6H267.212C268.868 61.6 269.876 62.476 269.876 63.892C269.876 64.948 269.36 65.644 268.568 66.016C269.228 66.376 269.624 67.06 269.684 67.912L269.828 70H268.82L268.676 67.972C268.628 67.156 268.112 66.58 267.32 66.58H265.052V70H264.02ZM267.2 65.656C268.388 65.656 268.832 64.888 268.832 64.06C268.832 63.232 268.388 62.512 267.2 62.512H265.052V65.656H267.2ZM274.015 70.096C272.227 70.096 271.027 68.668 271.027 66.928C271.027 65.164 272.131 63.856 273.907 63.856C275.671 63.856 276.727 65.08 276.727 66.688C276.727 66.832 276.715 66.976 276.703 67.108H271.975C272.047 68.356 272.875 69.244 274.015 69.244C274.999 69.244 275.623 68.812 275.803 68.056H276.787C276.583 69.292 275.515 70.096 274.015 70.096ZM272.023 66.328H275.743C275.659 65.308 274.987 64.672 273.907 64.672C272.887 64.672 272.203 65.26 272.023 66.328ZM278.608 70V64.804H277.348V63.952H278.608V63.34C278.608 62.188 279.34 61.468 280.492 61.468H281.44V62.32H280.528C279.952 62.32 279.568 62.704 279.568 63.352V63.952H281.44V64.804H279.568V70H278.608ZM282.451 70V63.952H283.411V65.176C283.675 64.348 284.167 63.952 285.055 63.952H285.823V64.804H284.995C283.771 64.804 283.411 65.908 283.411 67.336V70H282.451ZM289.25 70.096C287.462 70.096 286.262 68.668 286.262 66.928C286.262 65.164 287.366 63.856 289.142 63.856C290.906 63.856 291.962 65.08 291.962 66.688C291.962 66.832 291.95 66.976 291.938 67.108H287.21C287.282 68.356 288.11 69.244 289.25 69.244C290.234 69.244 290.858 68.812 291.038 68.056H292.022C291.818 69.292 290.75 70.096 289.25 70.096ZM287.258 66.328H290.978C290.894 65.308 290.222 64.672 289.142 64.672C288.122 64.672 287.438 65.26 287.258 66.328ZM295.328 70.096C293.912 70.096 293.048 69.352 292.952 68.068H293.852C293.924 68.824 294.464 69.268 295.328 69.268C296.108 69.268 296.636 68.884 296.636 68.272C296.636 66.676 293.096 68.032 293.096 65.644C293.096 64.576 293.984 63.856 295.232 63.856C296.6 63.856 297.44 64.54 297.536 65.704H296.624C296.552 65.068 296.012 64.66 295.244 64.66C294.596 64.66 294.032 64.996 294.032 65.584C294.032 67.108 297.572 65.716 297.572 68.236C297.572 69.364 296.732 70.096 295.328 70.096ZM298.998 70V61.468H299.958V65.116C300.282 64.276 301.026 63.856 301.962 63.856C303.33 63.856 304.218 64.828 304.218 66.304V70H303.258V66.46C303.258 65.428 302.658 64.732 301.746 64.732C300.702 64.732 299.958 65.56 299.958 66.736V70H298.998ZM308.527 70.096C306.739 70.096 305.539 68.668 305.539 66.928C305.539 65.164 306.643 63.856 308.419 63.856C310.183 63.856 311.239 65.08 311.239 66.688C311.239 66.832 311.227 66.976 311.215 67.108H306.487C306.559 68.356 307.387 69.244 308.527 69.244C309.511 69.244 310.135 68.812 310.315 68.056H311.299C311.095 69.292 310.027 70.096 308.527 70.096ZM306.535 66.328H310.255C310.171 65.308 309.499 64.672 308.419 64.672C307.399 64.672 306.715 65.26 306.535 66.328ZM315.169 70.096C313.309 70.096 312.277 68.74 312.277 66.976C312.277 65.212 313.309 63.856 315.181 63.856C316.033 63.856 316.825 64.288 317.197 64.936V61.468H318.157V70H317.197V69.004C316.825 69.652 316.033 70.096 315.169 70.096ZM315.277 69.232C316.489 69.232 317.281 68.344 317.281 66.976C317.281 65.608 316.489 64.72 315.277 64.72C314.065 64.72 313.273 65.608 313.273 66.976C313.273 68.344 314.065 69.232 315.277 69.232ZM322.977 70V61.6H324.009V70H322.977ZM329.635 70.096C327.523 70.096 325.579 68.692 325.579 65.8C325.579 62.896 327.535 61.504 329.635 61.504C331.459 61.504 332.947 62.644 333.175 64.216H332.107C331.951 63.184 330.907 62.428 329.623 62.428C327.871 62.428 326.635 63.616 326.635 65.8C326.635 67.984 327.871 69.172 329.623 69.172C330.931 69.172 331.987 68.416 332.119 67.384H333.175C332.983 68.956 331.495 70.096 329.635 70.096ZM334.696 70V61.6H337.864C339.532 61.6 340.552 62.608 340.552 64.084C340.552 65.56 339.532 66.568 337.864 66.568H335.728V70H334.696ZM337.864 65.656C339.04 65.656 339.484 64.912 339.484 64.084C339.484 63.256 339.04 62.512 337.864 62.512H335.728V65.656H337.864ZM345.158 70V64.804H343.898V63.952H345.158V63.34C345.158 62.188 345.89 61.468 347.042 61.468H347.99V62.32H347.078C346.502 62.32 346.118 62.704 346.118 63.352V63.952H347.99V64.804H346.118V70H345.158ZM349.002 70V63.952H349.962V65.176C350.226 64.348 350.718 63.952 351.606 63.952H352.374V64.804H351.546C350.322 64.804 349.962 65.908 349.962 67.336V70H349.002ZM355.884 70.096C354.096 70.096 352.812 68.788 352.812 66.976C352.812 65.152 354.096 63.856 355.884 63.856C357.684 63.856 358.968 65.152 358.968 66.976C358.968 68.788 357.684 70.096 355.884 70.096ZM355.884 69.232C357.132 69.232 357.984 68.296 357.984 66.976C357.984 65.656 357.132 64.72 355.884 64.72C354.648 64.72 353.796 65.656 353.796 66.976C353.796 68.296 354.648 69.232 355.884 69.232ZM360.381 70V63.952H361.341V65.116C361.569 64.372 362.241 63.856 363.177 63.856C364.137 63.856 364.941 64.324 365.157 65.152C365.385 64.408 366.213 63.856 367.101 63.856C368.409 63.856 369.213 64.732 369.213 66.196V70H368.253V66.448C368.253 65.416 367.737 64.708 366.885 64.708C365.865 64.708 365.265 65.692 365.265 66.724V70H364.305V66.448C364.305 65.416 363.801 64.708 362.949 64.708C361.941 64.708 361.341 65.692 361.341 66.724V70H360.381ZM373.834 70V63.952H374.794V65.176C375.058 64.348 375.55 63.952 376.438 63.952H377.206V64.804H376.378C375.154 64.804 374.794 65.908 374.794 67.336V70H373.834ZM380.632 70.096C378.844 70.096 377.644 68.668 377.644 66.928C377.644 65.164 378.748 63.856 380.524 63.856C382.288 63.856 383.344 65.08 383.344 66.688C383.344 66.832 383.332 66.976 383.32 67.108H378.592C378.664 68.356 379.492 69.244 380.632 69.244C381.616 69.244 382.24 68.812 382.42 68.056H383.404C383.2 69.292 382.132 70.096 380.632 70.096ZM378.64 66.328H382.36C382.276 65.308 381.604 64.672 380.524 64.672C379.504 64.672 378.82 65.26 378.64 66.328ZM386.603 70.096C385.331 70.096 384.503 69.364 384.503 68.272C384.503 67.096 385.451 66.352 386.915 66.352H388.307C388.571 66.352 388.667 66.256 388.667 66.064C388.667 65.236 388.079 64.672 387.047 64.672C386.159 64.672 385.463 65.224 385.415 65.884H384.503C384.611 64.708 385.715 63.856 387.071 63.856C388.643 63.856 389.627 64.756 389.627 66.1V70H388.667V68.944C388.343 69.64 387.539 70.096 386.603 70.096ZM386.747 69.28C387.959 69.28 388.667 68.524 388.667 67.276V67.132H386.975C386.075 67.132 385.487 67.552 385.487 68.26C385.487 68.872 385.979 69.28 386.747 69.28ZM391.365 70V61.468H392.325V70H391.365ZM399.533 70.096C397.673 70.096 396.641 68.74 396.641 66.976C396.641 65.212 397.673 63.856 399.545 63.856C400.397 63.856 401.189 64.288 401.561 64.936V61.468H402.521V70H401.561V69.004C401.189 69.652 400.397 70.096 399.533 70.096ZM399.641 69.232C400.853 69.232 401.645 68.344 401.645 66.976C401.645 65.608 400.853 64.72 399.641 64.72C398.429 64.72 397.637 65.608 397.637 66.976C397.637 68.344 398.429 69.232 399.641 69.232ZM406.162 70.096C404.89 70.096 404.062 69.364 404.062 68.272C404.062 67.096 405.01 66.352 406.474 66.352H407.866C408.13 66.352 408.226 66.256 408.226 66.064C408.226 65.236 407.638 64.672 406.605 64.672C405.718 64.672 405.021 65.224 404.974 65.884H404.062C404.17 64.708 405.274 63.856 406.63 63.856C408.202 63.856 409.186 64.756 409.186 66.1V70H408.226V68.944C407.902 69.64 407.098 70.096 406.162 70.096ZM406.306 69.28C407.518 69.28 408.226 68.524 408.226 67.276V67.132H406.534C405.634 67.132 405.046 67.552 405.046 68.26C405.046 68.872 405.538 69.28 406.306 69.28ZM413.23 70C412.066 70 411.334 69.28 411.334 68.104V64.804H410.074V63.952H411.334V62.02H412.294V63.952H414.154V64.804H412.294V68.08C412.294 68.752 412.678 69.148 413.266 69.148H414.154V70H413.23ZM417.177 70.096C415.905 70.096 415.077 69.364 415.077 68.272C415.077 67.096 416.025 66.352 417.489 66.352H418.881C419.145 66.352 419.241 66.256 419.241 66.064C419.241 65.236 418.653 64.672 417.621 64.672C416.733 64.672 416.037 65.224 415.989 65.884H415.077C415.185 64.708 416.289 63.856 417.645 63.856C419.217 63.856 420.201 64.756 420.201 66.1V70H419.241V68.944C418.917 69.64 418.113 70.096 417.177 70.096ZM417.321 69.28C418.533 69.28 419.241 68.524 419.241 67.276V67.132H417.549C416.649 67.132 416.061 67.552 416.061 68.26C416.061 68.872 416.553 69.28 417.321 69.28Z" fill="#71717B"/>
<path d="M342.547 203.275V179.153C342.547 165.898 331.794 155.153 318.539 155.153C268.789 155.153 251.133 155.153 190.443 155.153" stroke="#00C950"/>
<path d="M169.508 439.699V415.577C169.508 402.322 180.26 391.577 193.515 391.577C242.93 391.577 275.268 391.577 326.59 391.577C335.427 391.577 342.612 384.414 342.612 375.577V339.967" stroke="#00C950"/>
<path d="M533.625 428.699V415.577C533.625 402.322 522.873 391.577 509.618 391.577C456.687 391.577 412.369 391.577 358.532 391.577C349.695 391.577 342.521 384.414 342.521 375.577V339.967" stroke="#00C950"/>
<path d="M342.555 247.275L342.553 79.8525" stroke="#00C950"/>
<path d="M342.477 203.275V179.153C342.477 165.898 353.253 155.153 366.508 155.153C411.4 155.153 413.869 155.153 474.145 155.153" stroke="#00C950"/>
<circle cx="342.543" cy="252.275" r="5.5" transform="rotate(180 342.543 252.275)" fill="white" stroke="#00C950"/>
<circle cx="342.543" cy="336.275" r="5.5" transform="rotate(180 342.543 336.275)" fill="white" stroke="#00C950"/>
<path d="M482 110.5H653C659.351 110.5 664.5 115.649 664.5 122V204C664.5 210.351 659.351 215.5 653 215.5H482C475.649 215.5 470.5 210.351 470.5 204V122C470.5 115.847 475.332 110.823 481.408 110.515L482 110.5Z" fill="white"/>
<path d="M482 110.5H653C659.351 110.5 664.5 115.649 664.5 122V204C664.5 210.351 659.351 215.5 653 215.5H482C475.649 215.5 470.5 210.351 470.5 204V122C470.5 115.847 475.332 110.823 481.408 110.515L482 110.5Z" stroke="#00C950"/>
<rect x="484.5" y="124.5" width="25" height="25" rx="5.5" fill="#FFFBEB"/>
<rect x="484.5" y="124.5" width="25" height="25" rx="5.5" stroke="#FE9A00"/>
<path d="M498.164 142.629H502.999" stroke="white" stroke-linecap="round" stroke-linejoin="round"/>
<path fill-rule="evenodd" clip-rule="evenodd" d="M497.52 131.53C498.037 130.912 498.967 130.821 499.597 131.328C499.632 131.355 500.753 132.226 500.753 132.226C501.446 132.645 501.661 133.535 501.233 134.215C501.21 134.251 494.875 142.176 494.875 142.176C494.664 142.439 494.344 142.595 494.002 142.598L491.576 142.629L491.029 140.315C490.952 139.99 491.029 139.648 491.24 139.385L497.52 131.53Z" stroke="#FE9A00" stroke-linecap="round" stroke-linejoin="round"/>
<path d="M496.348 133L499.982 135.792" stroke="#FE9A00" stroke-linecap="round" stroke-linejoin="round"/>
<path d="M523.39 142.112C520.856 142.112 518.602 140.46 518.602 137.1C518.602 133.74 520.884 132.088 523.39 132.088C525.602 132.088 527.38 133.446 527.632 135.35H526.106C525.952 134.202 524.79 133.376 523.376 133.376C521.472 133.376 520.086 134.678 520.086 137.1C520.086 139.522 521.472 140.824 523.39 140.824C524.832 140.824 525.98 139.998 526.134 138.85H527.618C527.408 140.754 525.644 142.112 523.39 142.112ZM529.125 142V134.944H530.483V136.302C530.805 135.364 531.365 134.944 532.359 134.944H533.213V136.12H532.191C530.903 136.12 530.483 137.268 530.483 138.808V142H529.125ZM537.181 142.112C534.997 142.112 533.653 140.39 533.653 138.43C533.653 136.456 534.885 134.832 537.055 134.832C539.225 134.832 540.387 136.386 540.387 138.178C540.387 138.36 540.373 138.598 540.359 138.724H534.983C535.095 140.04 535.963 140.95 537.181 140.95C538.217 140.95 538.889 140.502 539.085 139.704H540.443C540.205 141.16 538.931 142.112 537.181 142.112ZM535.025 137.674H539.015C538.931 136.596 538.217 135.924 537.055 135.924C535.963 135.924 535.235 136.526 535.025 137.674ZM544.035 142.112C542.593 142.112 541.627 141.244 541.627 139.984C541.627 138.626 542.719 137.73 544.371 137.73H545.855C546.177 137.73 546.331 137.618 546.331 137.366C546.331 136.512 545.701 135.924 544.623 135.924C543.629 135.924 542.929 136.54 542.887 137.254H541.627C541.739 135.868 542.985 134.832 544.665 134.832C546.485 134.832 547.675 135.882 547.675 137.45V142H546.331V140.838C545.981 141.608 545.099 142.112 544.035 142.112ZM544.301 141.034C545.575 141.034 546.331 140.208 546.331 138.906V138.78H544.511C543.587 138.78 542.985 139.214 542.985 139.956C542.985 140.6 543.503 141.034 544.301 141.034ZM552.409 142C550.981 142 550.057 141.132 550.057 139.69V136.12H548.615V134.944H550.057V132.732H551.415V134.944H553.501V136.12H551.415V139.648C551.415 140.404 551.835 140.824 552.507 140.824H553.501V142H552.409ZM557.757 142.112C555.573 142.112 554.229 140.39 554.229 138.43C554.229 136.456 555.461 134.832 557.631 134.832C559.801 134.832 560.963 136.386 560.963 138.178C560.963 138.36 560.949 138.598 560.935 138.724H555.559C555.671 140.04 556.539 140.95 557.757 140.95C558.793 140.95 559.465 140.502 559.661 139.704H561.019C560.781 141.16 559.507 142.112 557.757 142.112ZM555.601 137.674H559.591C559.507 136.596 558.793 135.924 557.631 135.924C556.539 135.924 555.811 136.526 555.601 137.674Z" fill="#27272A"/>
<path d="M484 158H651" stroke="#E4E4E7"/>
<circle cx="486" cy="175" r="2" fill="#71717B"/>
<path d="M493.02 180V171.6H494.196L498.516 178.44V171.6H499.548V180H498.372L494.052 173.184V180H493.02ZM503.964 180.096C502.176 180.096 500.976 178.668 500.976 176.928C500.976 175.164 502.08 173.856 503.856 173.856C505.62 173.856 506.676 175.08 506.676 176.688C506.676 176.832 506.664 176.976 506.652 177.108H501.924C501.996 178.356 502.824 179.244 503.964 179.244C504.948 179.244 505.572 178.812 505.752 178.056H506.736C506.532 179.292 505.464 180.096 503.964 180.096ZM501.972 176.328H505.692C505.608 175.308 504.936 174.672 503.856 174.672C502.836 174.672 502.152 175.26 501.972 176.328ZM509.3 180L507.464 173.952H508.424L509.756 178.752L511.244 173.952H512.18L513.656 178.752L514.976 173.952H515.948L514.112 180H513.188L511.7 175.188L510.224 180H509.3ZM522.417 180C521.253 180 520.521 179.28 520.521 178.104V174.804H519.261V173.952H520.521V172.02H521.481V173.952H523.341V174.804H521.481V178.08C521.481 178.752 521.865 179.148 522.453 179.148H523.341V180H522.417ZM527.087 180.096C525.299 180.096 524.015 178.788 524.015 176.976C524.015 175.152 525.299 173.856 527.087 173.856C528.887 173.856 530.171 175.152 530.171 176.976C530.171 178.788 528.887 180.096 527.087 180.096ZM527.087 179.232C528.335 179.232 529.187 178.296 529.187 176.976C529.187 175.656 528.335 174.72 527.087 174.72C525.851 174.72 524.999 175.656 524.999 176.976C524.999 178.296 525.851 179.232 527.087 179.232ZM531.572 182.448V173.952H532.532V174.936C532.916 174.288 533.708 173.856 534.56 173.856C536.432 173.856 537.464 175.212 537.464 176.976C537.464 178.74 536.432 180.096 534.56 180.096C533.708 180.096 532.904 179.652 532.532 179.004V182.448H531.572ZM534.464 179.232C535.676 179.232 536.468 178.344 536.468 176.976C536.468 175.608 535.676 174.72 534.464 174.72C533.24 174.72 532.448 175.608 532.448 176.976C532.448 178.344 533.24 179.232 534.464 179.232ZM538.873 180V173.952H539.833V180H538.873ZM538.801 171.468H539.905V172.812H538.801V171.468ZM544.194 180.096C542.286 180.096 541.254 178.596 541.254 176.976C541.254 175.356 542.286 173.856 544.194 173.856C545.55 173.856 546.762 174.648 546.942 175.992H545.994C545.874 175.26 545.118 174.72 544.206 174.72C542.886 174.72 542.25 175.74 542.25 176.976C542.25 178.212 542.898 179.232 544.206 179.232C545.118 179.232 545.778 178.776 545.994 178.044H546.93C546.726 179.28 545.73 180.096 544.194 180.096ZM550.227 180.096C548.811 180.096 547.947 179.352 547.851 178.068H548.751C548.823 178.824 549.363 179.268 550.227 179.268C551.007 179.268 551.535 178.884 551.535 178.272C551.535 176.676 547.995 178.032 547.995 175.644C547.995 174.576 548.883 173.856 550.131 173.856C551.499 173.856 552.339 174.54 552.435 175.704H551.523C551.451 175.068 550.911 174.66 550.143 174.66C549.495 174.66 548.931 174.996 548.931 175.584C548.931 177.108 552.471 175.716 552.471 178.236C552.471 179.364 551.631 180.096 550.227 180.096ZM559.071 180.096C557.451 180.096 556.455 179.22 556.455 177.744C556.455 176.544 557.295 175.932 558.207 175.452C557.667 174.84 557.187 174.144 557.187 173.472C557.187 172.32 558.063 171.504 559.299 171.504C560.535 171.504 561.411 172.284 561.411 173.388C561.411 174.636 560.547 175.248 559.623 175.728L561.363 177.636L561.675 177.168C562.239 176.22 562.839 176.112 563.439 176.112V177.036C562.911 177.036 562.491 177.312 562.263 177.708L561.939 178.272L563.523 180H562.419L561.483 178.992C560.823 179.808 559.887 180.096 559.071 180.096ZM557.391 177.756C557.391 178.692 558.003 179.232 559.059 179.232C559.647 179.232 560.343 179.016 560.883 178.344L558.819 176.136C558.039 176.532 557.391 176.964 557.391 177.756ZM558.099 173.496C558.099 174.024 558.567 174.588 558.999 175.056C559.803 174.636 560.499 174.216 560.499 173.412C560.499 172.752 559.995 172.284 559.299 172.284C558.603 172.284 558.099 172.788 558.099 173.496ZM570.092 180.096C568.184 180.096 567.152 178.596 567.152 176.976C567.152 175.356 568.184 173.856 570.092 173.856C571.448 173.856 572.66 174.648 572.84 175.992H571.892C571.772 175.26 571.016 174.72 570.104 174.72C568.784 174.72 568.148 175.74 568.148 176.976C568.148 178.212 568.796 179.232 570.104 179.232C571.016 179.232 571.676 178.776 571.892 178.044H572.828C572.624 179.28 571.628 180.096 570.092 180.096ZM574.205 180V173.952H575.165V175.176C575.429 174.348 575.921 173.952 576.809 173.952H577.577V174.804H576.749C575.525 174.804 575.165 175.908 575.165 177.336V180H574.205ZM581.003 180.096C579.215 180.096 578.015 178.668 578.015 176.928C578.015 175.164 579.119 173.856 580.895 173.856C582.659 173.856 583.715 175.08 583.715 176.688C583.715 176.832 583.703 176.976 583.691 177.108H578.963C579.035 178.356 579.863 179.244 581.003 179.244C581.987 179.244 582.611 178.812 582.791 178.056H583.775C583.571 179.292 582.503 180.096 581.003 180.096ZM579.011 176.328H582.731C582.647 175.308 581.975 174.672 580.895 174.672C579.875 174.672 579.191 175.26 579.011 176.328ZM586.974 180.096C585.702 180.096 584.874 179.364 584.874 178.272C584.874 177.096 585.822 176.352 587.286 176.352H588.678C588.942 176.352 589.038 176.256 589.038 176.064C589.038 175.236 588.45 174.672 587.418 174.672C586.53 174.672 585.834 175.224 585.786 175.884H584.874C584.982 174.708 586.086 173.856 587.442 173.856C589.014 173.856 589.998 174.756 589.998 176.1V180H589.038V178.944C588.714 179.64 587.91 180.096 586.974 180.096ZM587.118 179.28C588.33 179.28 589.038 178.524 589.038 177.276V177.132H587.346C586.446 177.132 585.858 177.552 585.858 178.26C585.858 178.872 586.35 179.28 587.118 179.28ZM594.042 180C592.878 180 592.146 179.28 592.146 178.104V174.804H590.886V173.952H592.146V172.02H593.106V173.952H594.966V174.804H593.106V178.08C593.106 178.752 593.49 179.148 594.078 179.148H594.966V180H594.042ZM596.178 180V173.952H597.138V180H596.178ZM596.106 171.468H597.21V172.812H596.106V171.468ZM600.526 180L598.306 173.952H599.302L601.03 178.812L602.758 173.952H603.742L601.534 180H600.526ZM607.347 180.096C605.559 180.096 604.359 178.668 604.359 176.928C604.359 175.164 605.463 173.856 607.239 173.856C609.003 173.856 610.059 175.08 610.059 176.688C610.059 176.832 610.047 176.976 610.035 177.108H605.307C605.379 178.356 606.207 179.244 607.347 179.244C608.331 179.244 608.955 178.812 609.135 178.056H610.119C609.915 179.292 608.847 180.096 607.347 180.096ZM605.355 176.328H609.075C608.991 175.308 608.319 174.672 607.239 174.672C606.219 174.672 605.535 175.26 605.355 176.328ZM613.426 180.096C612.01 180.096 611.146 179.352 611.05 178.068H611.95C612.022 178.824 612.562 179.268 613.426 179.268C614.206 179.268 614.734 178.884 614.734 178.272C614.734 176.676 611.194 178.032 611.194 175.644C611.194 174.576 612.082 173.856 613.33 173.856C614.698 173.856 615.538 174.54 615.634 175.704H614.722C614.65 175.068 614.11 174.66 613.342 174.66C612.694 174.66 612.13 174.996 612.13 175.584C612.13 177.108 615.67 175.716 615.67 178.236C615.67 179.364 614.83 180.096 613.426 180.096ZM493.02 198V189.6H496.188C497.856 189.6 498.876 190.608 498.876 192.084C498.876 193.56 497.856 194.568 496.188 194.568H494.052V198H493.02ZM496.188 193.656C497.364 193.656 497.808 192.912 497.808 192.084C497.808 191.256 497.364 190.512 496.188 190.512H494.052V193.656H496.188ZM500.025 198V191.952H500.985V193.176C501.249 192.348 501.741 191.952 502.629 191.952H503.397V192.804H502.569C501.345 192.804 500.985 193.908 500.985 195.336V198H500.025ZM506.908 198.096C505.12 198.096 503.836 196.788 503.836 194.976C503.836 193.152 505.12 191.856 506.908 191.856C508.708 191.856 509.992 193.152 509.992 194.976C509.992 196.788 508.708 198.096 506.908 198.096ZM506.908 197.232C508.156 197.232 509.008 196.296 509.008 194.976C509.008 193.656 508.156 192.72 506.908 192.72C505.672 192.72 504.82 193.656 504.82 194.976C504.82 196.296 505.672 197.232 506.908 197.232ZM514.044 198.096C512.256 198.096 510.972 196.788 510.972 194.976C510.972 193.152 512.256 191.856 514.044 191.856C515.844 191.856 517.128 193.152 517.128 194.976C517.128 196.788 515.844 198.096 514.044 198.096ZM514.044 197.232C515.292 197.232 516.144 196.296 516.144 194.976C516.144 193.656 515.292 192.72 514.044 192.72C512.808 192.72 511.956 193.656 511.956 194.976C511.956 196.296 512.808 197.232 514.044 197.232ZM518.94 198V192.804H517.68V191.952H518.94V191.34C518.94 190.188 519.672 189.468 520.824 189.468H521.772V190.32H520.86C520.284 190.32 519.9 190.704 519.9 191.352V191.952H521.772V192.804H519.9V198H518.94ZM521.908 195.156V194.316H525.592V195.156H521.908ZM529.58 198.096C527.72 198.096 526.688 196.74 526.688 194.976C526.688 193.212 527.72 191.856 529.592 191.856C530.444 191.856 531.236 192.288 531.608 192.936V189.468H532.568V198H531.608V197.004C531.236 197.652 530.444 198.096 529.58 198.096ZM529.688 197.232C530.9 197.232 531.692 196.344 531.692 194.976C531.692 193.608 530.9 192.72 529.688 192.72C528.476 192.72 527.684 193.608 527.684 194.976C527.684 196.344 528.476 197.232 529.688 197.232ZM534.396 198V191.952H535.356V193.176C535.62 192.348 536.112 191.952 537 191.952H537.768V192.804H536.94C535.716 192.804 535.356 193.908 535.356 195.336V198H534.396ZM538.85 198V191.952H539.81V198H538.85ZM538.778 189.468H539.882V190.812H538.778V189.468ZM543.198 198L540.978 191.952H541.974L543.702 196.812L545.43 191.952H546.414L544.206 198H543.198ZM550.019 198.096C548.231 198.096 547.031 196.668 547.031 194.928C547.031 193.164 548.135 191.856 549.911 191.856C551.675 191.856 552.731 193.08 552.731 194.688C552.731 194.832 552.719 194.976 552.707 195.108H547.979C548.051 196.356 548.879 197.244 550.019 197.244C551.003 197.244 551.627 196.812 551.807 196.056H552.791C552.587 197.292 551.519 198.096 550.019 198.096ZM548.027 194.328H551.747C551.663 193.308 550.991 192.672 549.911 192.672C548.891 192.672 548.207 193.26 548.027 194.328ZM554.178 198V191.952H555.138V193.116C555.462 192.276 556.206 191.856 557.142 191.856C558.51 191.856 559.398 192.828 559.398 194.304V198H558.438V194.46C558.438 193.428 557.838 192.732 556.926 192.732C555.882 192.732 555.138 193.56 555.138 194.736V198H554.178ZM566.541 198.096C564.633 198.096 563.601 196.596 563.601 194.976C563.601 193.356 564.633 191.856 566.541 191.856C567.897 191.856 569.109 192.648 569.289 193.992H568.341C568.221 193.26 567.465 192.72 566.553 192.72C565.233 192.72 564.597 193.74 564.597 194.976C564.597 196.212 565.245 197.232 566.553 197.232C567.465 197.232 568.125 196.776 568.341 196.044H569.277C569.073 197.28 568.077 198.096 566.541 198.096ZM573.306 198.096C571.518 198.096 570.234 196.788 570.234 194.976C570.234 193.152 571.518 191.856 573.306 191.856C575.106 191.856 576.39 193.152 576.39 194.976C576.39 196.788 575.106 198.096 573.306 198.096ZM573.306 197.232C574.554 197.232 575.406 196.296 575.406 194.976C575.406 193.656 574.554 192.72 573.306 192.72C572.07 192.72 571.218 193.656 571.218 194.976C571.218 196.296 572.07 197.232 573.306 197.232ZM577.791 198V191.952H578.751V193.116C579.075 192.276 579.819 191.856 580.755 191.856C582.123 191.856 583.011 192.828 583.011 194.304V198H582.051V194.46C582.051 193.428 581.451 192.732 580.539 192.732C579.495 192.732 578.751 193.56 578.751 194.736V198H577.791ZM587.046 198C585.882 198 585.15 197.28 585.15 196.104V192.804H583.89V191.952H585.15V190.02H586.11V191.952H587.97V192.804H586.11V196.08C586.11 196.752 586.494 197.148 587.082 197.148H587.97V198H587.046ZM591.632 198.096C589.844 198.096 588.644 196.668 588.644 194.928C588.644 193.164 589.748 191.856 591.524 191.856C593.288 191.856 594.344 193.08 594.344 194.688C594.344 194.832 594.332 194.976 594.32 195.108H589.592C589.664 196.356 590.492 197.244 591.632 197.244C592.616 197.244 593.24 196.812 593.42 196.056H594.404C594.2 197.292 593.132 198.096 591.632 198.096ZM589.64 194.328H593.36C593.276 193.308 592.604 192.672 591.524 192.672C590.504 192.672 589.82 193.26 589.64 194.328ZM595.791 198V191.952H596.751V193.116C597.075 192.276 597.819 191.856 598.755 191.856C600.123 191.856 601.011 192.828 601.011 194.304V198H600.051V194.46C600.051 193.428 599.451 192.732 598.539 192.732C597.495 192.732 596.751 193.56 596.751 194.736V198H595.791ZM605.046 198C603.882 198 603.15 197.28 603.15 196.104V192.804H601.89V191.952H603.15V190.02H604.11V191.952H605.97V192.804H604.11V196.08C604.11 196.752 604.494 197.148 605.082 197.148H605.97V198H605.046Z" fill="#71717B"/>
<path d="M12 116.5H183C189.351 116.5 194.5 121.649 194.5 128V210C194.5 216.351 189.351 221.5 183 221.5H12C5.64873 221.5 0.5 216.351 0.5 210V128C0.5 121.847 5.33195 116.823 11.4082 116.515L12 116.5Z" fill="white"/>
<path d="M12 116.5H183C189.351 116.5 194.5 121.649 194.5 128V210C194.5 216.351 189.351 221.5 183 221.5H12C5.64873 221.5 0.5 216.351 0.5 210V128C0.5 121.847 5.33195 116.823 11.4082 116.515L12 116.5Z" stroke="#00C950"/>
<rect x="14.5" y="130.5" width="25" height="25" rx="5.5" fill="#FFFBEB"/>
<rect x="14.5" y="130.5" width="25" height="25" rx="5.5" stroke="#FE9A00"/>
<path d="M27 139.5C27 138.97 27.2107 138.461 27.5858 138.086C27.9609 137.711 28.4696 137.5 29 137.5H33.5V146.5H29C28.4696 146.5 27.9609 146.711 27.5858 147.086C27.2107 147.461 27 147.97 27 148.5" stroke="#FE9A00" stroke-linecap="round" stroke-linejoin="round"/>
<path d="M20.5 146.5H25C25.5304 146.5 26.0391 146.711 26.4142 147.086C26.7893 147.461 27 147.97 27 148.5V139.5C27 138.97 26.7893 138.461 26.4142 138.086C26.0391 137.711 25.5304 137.5 25 137.5H20.5V146.5Z" stroke="#FE9A00" stroke-linecap="round" stroke-linejoin="round"/>
<path d="M29 140H31.5" stroke="white" stroke-linecap="round" stroke-linejoin="round"/>
<path d="M29 142H31.5" stroke="white" stroke-linecap="round" stroke-linejoin="round"/>
<path d="M29 144H31.5" stroke="white" stroke-linecap="round" stroke-linejoin="round"/>
<path d="M49.12 148V138.2H50.576V146.712H55.35V148H49.12ZM59.2784 148.112C57.0944 148.112 55.7504 146.39 55.7504 144.43C55.7504 142.456 56.9824 140.832 59.1524 140.832C61.3224 140.832 62.4844 142.386 62.4844 144.178C62.4844 144.36 62.4704 144.598 62.4564 144.724H57.0804C57.1924 146.04 58.0604 146.95 59.2784 146.95C60.3144 146.95 60.9864 146.502 61.1824 145.704H62.5404C62.3024 147.16 61.0284 148.112 59.2784 148.112ZM57.1224 143.674H61.1124C61.0284 142.596 60.3144 141.924 59.1524 141.924C58.0604 141.924 57.3324 142.526 57.1224 143.674ZM66.1324 148.112C64.6904 148.112 63.7244 147.244 63.7244 145.984C63.7244 144.626 64.8164 143.73 66.4684 143.73H67.9524C68.2744 143.73 68.4284 143.618 68.4284 143.366C68.4284 142.512 67.7984 141.924 66.7204 141.924C65.7264 141.924 65.0264 142.54 64.9844 143.254H63.7244C63.8364 141.868 65.0824 140.832 66.7624 140.832C68.5824 140.832 69.7724 141.882 69.7724 143.45V148H68.4284V146.838C68.0784 147.608 67.1964 148.112 66.1324 148.112ZM66.3984 147.034C67.6724 147.034 68.4284 146.208 68.4284 144.906V144.78H66.6084C65.6844 144.78 65.0824 145.214 65.0824 145.956C65.0824 146.6 65.6004 147.034 66.3984 147.034ZM71.662 148V140.944H73.02V142.302C73.342 141.364 73.902 140.944 74.896 140.944H75.75V142.12H74.728C73.44 142.12 73.02 143.268 73.02 144.808V148H71.662ZM76.9256 148V140.944H78.2836V142.19C78.6616 141.308 79.5016 140.832 80.5516 140.832C82.1476 140.832 83.1836 141.98 83.1836 143.66V148H81.8256V143.926C81.8256 142.806 81.1676 142.05 80.1736 142.05C79.0676 142.05 78.2836 142.946 78.2836 144.178V148H76.9256Z" fill="#27272A"/>
<path d="M14 164H181" stroke="#E4E4E7"/>
<circle cx="16" cy="181" r="2" fill="#71717B"/>
<path d="M23.02 186V177.6H26.188C27.856 177.6 28.876 178.608 28.876 180.084C28.876 181.56 27.856 182.568 26.188 182.568H24.052V186H23.02ZM26.188 181.656C27.364 181.656 27.808 180.912 27.808 180.084C27.808 179.256 27.364 178.512 26.188 178.512H24.052V181.656H26.188ZM32.4409 186.096C30.6529 186.096 29.4529 184.668 29.4529 182.928C29.4529 181.164 30.5569 179.856 32.3329 179.856C34.0969 179.856 35.1529 181.08 35.1529 182.688C35.1529 182.832 35.1409 182.976 35.1289 183.108H30.4009C30.4729 184.356 31.3009 185.244 32.4409 185.244C33.4249 185.244 34.0489 184.812 34.2289 184.056H35.2129C35.0089 185.292 33.9409 186.096 32.4409 186.096ZM30.4489 182.328H34.1689C34.0849 181.308 33.4129 180.672 32.3329 180.672C31.3129 180.672 30.6289 181.26 30.4489 182.328ZM40.4755 179.34C40.4755 178.188 41.2075 177.468 42.3595 177.468H43.3075V178.32H42.3955C41.8195 178.32 41.4355 178.704 41.4355 179.352V179.952H43.3075V180.804H41.4355V186H40.4755V179.34ZM36.5995 186V179.952H37.5595V181.176C37.8235 180.348 38.3155 179.952 39.2035 179.952H39.9115V180.804H39.1435C37.9195 180.804 37.5595 181.908 37.5595 183.336V186H36.5995ZM46.7867 186.096C44.9987 186.096 43.7147 184.788 43.7147 182.976C43.7147 181.152 44.9987 179.856 46.7867 179.856C48.5867 179.856 49.8707 181.152 49.8707 182.976C49.8707 184.788 48.5867 186.096 46.7867 186.096ZM46.7867 185.232C48.0347 185.232 48.8867 184.296 48.8867 182.976C48.8867 181.656 48.0347 180.72 46.7867 180.72C45.5507 180.72 44.6987 181.656 44.6987 182.976C44.6987 184.296 45.5507 185.232 46.7867 185.232ZM51.2714 186V179.952H52.2314V181.176C52.4954 180.348 52.9874 179.952 53.8754 179.952H54.6434V180.804H53.8154C52.5914 180.804 52.2314 181.908 52.2314 183.336V186H51.2714ZM55.7365 186V179.952H56.6965V181.116C56.9245 180.372 57.5965 179.856 58.5325 179.856C59.4925 179.856 60.2965 180.324 60.5125 181.152C60.7405 180.408 61.5685 179.856 62.4565 179.856C63.7645 179.856 64.5685 180.732 64.5685 182.196V186H63.6085V182.448C63.6085 181.416 63.0925 180.708 62.2405 180.708C61.2205 180.708 60.6205 181.692 60.6205 182.724V186H59.6605V182.448C59.6605 181.416 59.1565 180.708 58.3045 180.708C57.2965 180.708 56.6965 181.692 56.6965 182.724V186H55.7365ZM68.1185 186.096C66.8465 186.096 66.0185 185.364 66.0185 184.272C66.0185 183.096 66.9665 182.352 68.4305 182.352H69.8225C70.0865 182.352 70.1825 182.256 70.1825 182.064C70.1825 181.236 69.5945 180.672 68.5625 180.672C67.6745 180.672 66.9785 181.224 66.9305 181.884H66.0185C66.1265 180.708 67.2305 179.856 68.5865 179.856C70.1585 179.856 71.1425 180.756 71.1425 182.1V186H70.1825V184.944C69.8585 185.64 69.0545 186.096 68.1185 186.096ZM68.2625 185.28C69.4745 185.28 70.1825 184.524 70.1825 183.276V183.132H68.4905C67.5905 183.132 67.0025 183.552 67.0025 184.26C67.0025 184.872 67.4945 185.28 68.2625 185.28ZM72.8808 186V179.952H73.8408V181.116C74.1648 180.276 74.9088 179.856 75.8448 179.856C77.2128 179.856 78.1008 180.828 78.1008 182.304V186H77.1408V182.46C77.1408 181.428 76.5408 180.732 75.6288 180.732C74.5848 180.732 73.8408 181.56 73.8408 182.736V186H72.8808ZM82.3617 186.096C80.4537 186.096 79.4217 184.596 79.4217 182.976C79.4217 181.356 80.4537 179.856 82.3617 179.856C83.7177 179.856 84.9297 180.648 85.1097 181.992H84.1617C84.0417 181.26 83.2857 180.72 82.3737 180.72C81.0537 180.72 80.4177 181.74 80.4177 182.976C80.4177 184.212 81.0657 185.232 82.3737 185.232C83.2857 185.232 83.9457 184.776 84.1617 184.044H85.0977C84.8937 185.28 83.8977 186.096 82.3617 186.096ZM89.0425 186.096C87.2545 186.096 86.0545 184.668 86.0545 182.928C86.0545 181.164 87.1585 179.856 88.9345 179.856C90.6985 179.856 91.7545 181.08 91.7545 182.688C91.7545 182.832 91.7425 182.976 91.7305 183.108H87.0025C87.0745 184.356 87.9025 185.244 89.0425 185.244C90.0265 185.244 90.6505 184.812 90.8305 184.056H91.8145C91.6105 185.292 90.5425 186.096 89.0425 186.096ZM87.0505 182.328H90.7705C90.6865 181.308 90.0145 180.672 88.9345 180.672C87.9145 180.672 87.2305 181.26 87.0505 182.328ZM97.8959 186.096C96.6239 186.096 95.7959 185.364 95.7959 184.272C95.7959 183.096 96.7439 182.352 98.2079 182.352H99.5999C99.8639 182.352 99.9599 182.256 99.9599 182.064C99.9599 181.236 99.3719 180.672 98.3399 180.672C97.4519 180.672 96.7559 181.224 96.7079 181.884H95.7959C95.9039 180.708 97.0079 179.856 98.3639 179.856C99.9359 179.856 100.92 180.756 100.92 182.1V186H99.9599V184.944C99.6359 185.64 98.8319 186.096 97.8959 186.096ZM98.0399 185.28C99.2519 185.28 99.9599 184.524 99.9599 183.276V183.132H98.2679C97.3679 183.132 96.7799 183.552 96.7799 184.26C96.7799 184.872 97.2719 185.28 98.0399 185.28ZM102.658 186V179.952H103.618V181.116C103.942 180.276 104.686 179.856 105.622 179.856C106.99 179.856 107.878 180.828 107.878 182.304V186H106.918V182.46C106.918 181.428 106.318 180.732 105.406 180.732C104.362 180.732 103.618 181.56 103.618 182.736V186H102.658ZM111.431 186.096C110.159 186.096 109.331 185.364 109.331 184.272C109.331 183.096 110.279 182.352 111.743 182.352H113.135C113.399 182.352 113.495 182.256 113.495 182.064C113.495 181.236 112.907 180.672 111.875 180.672C110.987 180.672 110.291 181.224 110.243 181.884H109.331C109.439 180.708 110.543 179.856 111.899 179.856C113.471 179.856 114.455 180.756 114.455 182.1V186H113.495V184.944C113.171 185.64 112.367 186.096 111.431 186.096ZM111.575 185.28C112.787 185.28 113.495 184.524 113.495 183.276V183.132H111.803C110.903 183.132 110.315 183.552 110.315 184.26C110.315 184.872 110.807 185.28 111.575 185.28ZM116.193 186V177.468H117.153V186H116.193ZM119.714 188.448L120.542 186.144L118.334 179.952H119.33L121.022 184.86L122.702 179.952H123.698L120.674 188.448H119.714ZM126.633 186.096C125.217 186.096 124.353 185.352 124.257 184.068H125.157C125.229 184.824 125.769 185.268 126.633 185.268C127.413 185.268 127.941 184.884 127.941 184.272C127.941 182.676 124.401 184.032 124.401 181.644C124.401 180.576 125.289 179.856 126.537 179.856C127.905 179.856 128.745 180.54 128.841 181.704H127.929C127.857 181.068 127.317 180.66 126.549 180.66C125.901 180.66 125.337 180.996 125.337 181.584C125.337 183.108 128.877 181.716 128.877 184.236C128.877 185.364 128.037 186.096 126.633 186.096ZM130.303 186V179.952H131.263V186H130.303ZM130.231 177.468H131.335V178.812H130.231V177.468ZM135.023 186.096C133.607 186.096 132.743 185.352 132.647 184.068H133.547C133.619 184.824 134.159 185.268 135.023 185.268C135.803 185.268 136.331 184.884 136.331 184.272C136.331 182.676 132.791 184.032 132.791 181.644C132.791 180.576 133.679 179.856 134.927 179.856C136.295 179.856 137.135 180.54 137.231 181.704H136.319C136.247 181.068 135.707 180.66 134.939 180.66C134.291 180.66 133.727 180.996 133.727 181.584C133.727 183.108 137.267 181.716 137.267 184.236C137.267 185.364 136.427 186.096 135.023 186.096ZM26.116 204.096C24.22 204.096 22.948 202.956 22.948 201.12V195.6H23.956V201.168C23.956 202.404 24.82 203.172 26.116 203.172C27.424 203.172 28.288 202.404 28.288 201.168V195.6H29.296V201.12C29.296 202.956 28.024 204.096 26.116 204.096ZM31.0331 206.448V197.952H31.9931V198.936C32.3771 198.288 33.1691 197.856 34.0211 197.856C35.8931 197.856 36.9251 199.212 36.9251 200.976C36.9251 202.74 35.8931 204.096 34.0211 204.096C33.1691 204.096 32.3651 203.652 31.9931 203.004V206.448H31.0331ZM33.9251 203.232C35.1371 203.232 35.9291 202.344 35.9291 200.976C35.9291 199.608 35.1371 198.72 33.9251 198.72C32.7011 198.72 31.9091 199.608 31.9091 200.976C31.9091 202.344 32.7011 203.232 33.9251 203.232ZM40.8179 204.096C38.9579 204.096 37.9259 202.74 37.9259 200.976C37.9259 199.212 38.9579 197.856 40.8299 197.856C41.6819 197.856 42.4739 198.288 42.8459 198.936V195.468H43.8059V204H42.8459V203.004C42.4739 203.652 41.6819 204.096 40.8179 204.096ZM40.9259 203.232C42.1379 203.232 42.9299 202.344 42.9299 200.976C42.9299 199.608 42.1379 198.72 40.9259 198.72C39.7139 198.72 38.9219 199.608 38.9219 200.976C38.9219 202.344 39.7139 203.232 40.9259 203.232ZM47.4467 204.096C46.1747 204.096 45.3467 203.364 45.3467 202.272C45.3467 201.096 46.2947 200.352 47.7587 200.352H49.1507C49.4147 200.352 49.5107 200.256 49.5107 200.064C49.5107 199.236 48.9227 198.672 47.8907 198.672C47.0027 198.672 46.3067 199.224 46.2587 199.884H45.3467C45.4547 198.708 46.5587 197.856 47.9147 197.856C49.4867 197.856 50.4707 198.756 50.4707 200.1V204H49.5107V202.944C49.1867 203.64 48.3827 204.096 47.4467 204.096ZM47.5907 203.28C48.8027 203.28 49.5107 202.524 49.5107 201.276V201.132H47.8187C46.9187 201.132 46.3307 201.552 46.3307 202.26C46.3307 202.872 46.8227 203.28 47.5907 203.28ZM54.5148 204C53.3508 204 52.6188 203.28 52.6188 202.104V198.804H51.3588V197.952H52.6188V196.02H53.5788V197.952H55.4388V198.804H53.5788V202.08C53.5788 202.752 53.9628 203.148 54.5508 203.148H55.4388V204H54.5148ZM59.1011 204.096C57.3131 204.096 56.1131 202.668 56.1131 200.928C56.1131 199.164 57.2171 197.856 58.9931 197.856C60.7571 197.856 61.8131 199.08 61.8131 200.688C61.8131 200.832 61.8011 200.976 61.7891 201.108H57.0611C57.1331 202.356 57.9611 203.244 59.1011 203.244C60.0851 203.244 60.7091 202.812 60.8891 202.056H61.8731C61.6691 203.292 60.6011 204.096 59.1011 204.096ZM57.1091 200.328H60.8291C60.7451 199.308 60.0731 198.672 58.9931 198.672C57.9731 198.672 57.2891 199.26 57.1091 200.328ZM65.7437 204.096C63.8837 204.096 62.8517 202.74 62.8517 200.976C62.8517 199.212 63.8837 197.856 65.7557 197.856C66.6077 197.856 67.3997 198.288 67.7717 198.936V195.468H68.7317V204H67.7717V203.004C67.3997 203.652 66.6077 204.096 65.7437 204.096ZM65.8517 203.232C67.0637 203.232 67.8557 202.344 67.8557 200.976C67.8557 199.608 67.0637 198.72 65.8517 198.72C64.6397 198.72 63.8477 199.608 63.8477 200.976C63.8477 202.344 64.6397 203.232 65.8517 203.232ZM73.4433 206.448V197.952H74.4033V198.936C74.7873 198.288 75.5793 197.856 76.4313 197.856C78.3033 197.856 79.3353 199.212 79.3353 200.976C79.3353 202.74 78.3033 204.096 76.4313 204.096C75.5793 204.096 74.7753 203.652 74.4033 203.004V206.448H73.4433ZM76.3353 203.232C77.5473 203.232 78.3393 202.344 78.3393 200.976C78.3393 199.608 77.5473 198.72 76.3353 198.72C75.1113 198.72 74.3193 199.608 74.3193 200.976C74.3193 202.344 75.1113 203.232 76.3353 203.232ZM80.744 204V195.468H81.704V204H80.744ZM85.3568 204.096C84.0848 204.096 83.2568 203.364 83.2568 202.272C83.2568 201.096 84.2048 200.352 85.6688 200.352H87.0608C87.3248 200.352 87.4208 200.256 87.4208 200.064C87.4208 199.236 86.8328 198.672 85.8008 198.672C84.9128 198.672 84.2168 199.224 84.1688 199.884H83.2568C83.3648 198.708 84.4688 197.856 85.8248 197.856C87.3968 197.856 88.3808 198.756 88.3808 200.1V204H87.4208V202.944C87.0968 203.64 86.2928 204.096 85.3568 204.096ZM85.5008 203.28C86.7128 203.28 87.4208 202.524 87.4208 201.276V201.132H85.7288C84.8288 201.132 84.2408 201.552 84.2408 202.26C84.2408 202.872 84.7328 203.28 85.5008 203.28ZM90.7336 206.448L91.5616 204.144L89.3536 197.952H90.3496L92.0416 202.86L93.7216 197.952H94.7176L91.6936 206.448H90.7336ZM98.8727 204.096C98.0207 204.096 97.2167 203.652 96.8447 203.004V204H95.8847V195.468H96.8447V198.936C97.2287 198.288 98.0207 197.856 98.8727 197.856C100.745 197.856 101.777 199.212 101.777 200.976C101.777 202.74 100.745 204.096 98.8727 204.096ZM98.7767 203.232C99.9887 203.232 100.781 202.344 100.781 200.976C100.781 199.608 99.9887 198.72 98.7767 198.72C97.5527 198.72 96.7607 199.608 96.7607 200.976C96.7607 202.344 97.5527 203.232 98.7767 203.232ZM105.837 204.096C104.049 204.096 102.765 202.788 102.765 200.976C102.765 199.152 104.049 197.856 105.837 197.856C107.637 197.856 108.921 199.152 108.921 200.976C108.921 202.788 107.637 204.096 105.837 204.096ZM105.837 203.232C107.085 203.232 107.937 202.296 107.937 200.976C107.937 199.656 107.085 198.72 105.837 198.72C104.601 198.72 103.749 199.656 103.749 200.976C103.749 202.296 104.601 203.232 105.837 203.232ZM112.974 204.096C111.186 204.096 109.902 202.788 109.902 200.976C109.902 199.152 111.186 197.856 112.974 197.856C114.774 197.856 116.058 199.152 116.058 200.976C116.058 202.788 114.774 204.096 112.974 204.096ZM112.974 203.232C114.222 203.232 115.074 202.296 115.074 200.976C115.074 199.656 114.222 198.72 112.974 198.72C111.738 198.72 110.886 199.656 110.886 200.976C110.886 202.296 111.738 203.232 112.974 203.232ZM117.459 204V195.468H118.431V200.532L121.287 197.952H122.559L119.955 200.316L122.787 204H121.575L119.247 200.952L118.431 201.696V204H117.459Z" fill="#71717B"/>
<path d="M82.5 447H253.5C259.851 447 265 452.149 265 458.5V508.5C265 514.851 259.851 520 253.5 520H82.5C76.1487 520 71 514.851 71 508.5V458.5C71 452.347 75.8319 447.323 81.9082 447.015L82.5 447Z" fill="white"/>
<path d="M82.5 447H253.5C259.851 447 265 452.149 265 458.5V508.5C265 514.851 259.851 520 253.5 520H82.5C76.1487 520 71 514.851 71 508.5V458.5C71 452.347 75.8319 447.323 81.9082 447.015L82.5 447Z" stroke="#00C950"/>
<rect x="85" y="461" width="25" height="25" rx="5.5" fill="#FFFBEB"/>
<rect x="85" y="461" width="25" height="25" rx="5.5" stroke="#FE9A00"/>
<g clip-path="url(#clip0_11181_3057)">
<path d="M100 471.5H103V468.5" stroke="#FE9A00" stroke-linecap="round" stroke-linejoin="round"/>
<path d="M103 471.5L101.233 469.732C100.209 468.709 98.823 468.13 97.3755 468.122C95.928 468.113 94.5354 468.676 93.5 469.687" stroke="#FE9A00" stroke-linecap="round" stroke-linejoin="round"/>
<path d="M95 475.5H92V478.5" stroke="#FE9A00" stroke-linecap="round" stroke-linejoin="round"/>
<path d="M92 475.5L93.7675 477.267C94.7911 478.291 96.177 478.87 97.6245 478.878C99.072 478.887 100.465 478.324 101.5 477.312" stroke="#FE9A00" stroke-linecap="round" stroke-linejoin="round"/>
</g>
<path d="M123.89 478.612C121.356 478.612 119.102 476.96 119.102 473.6C119.102 470.24 121.384 468.588 123.89 468.588C126.102 468.588 127.88 469.946 128.132 471.85H126.606C126.452 470.702 125.29 469.876 123.876 469.876C121.972 469.876 120.586 471.178 120.586 473.6C120.586 476.022 121.972 477.324 123.89 477.324C125.332 477.324 126.48 476.498 126.634 475.35H128.118C127.908 477.254 126.144 478.612 123.89 478.612ZM132.789 478.612C130.675 478.612 129.149 477.086 129.149 474.972C129.149 472.858 130.675 471.332 132.789 471.332C134.903 471.332 136.415 472.858 136.415 474.972C136.415 477.086 134.903 478.612 132.789 478.612ZM132.789 477.422C134.119 477.422 135.029 476.414 135.029 474.972C135.029 473.53 134.119 472.522 132.789 472.522C131.445 472.522 130.535 473.53 130.535 474.972C130.535 476.414 131.445 477.422 132.789 477.422ZM137.924 478.5V471.444H139.282V472.69C139.66 471.808 140.5 471.332 141.55 471.332C143.146 471.332 144.182 472.48 144.182 474.16V478.5H142.824V474.426C142.824 473.306 142.166 472.55 141.172 472.55C140.066 472.55 139.282 473.446 139.282 474.678V478.5H137.924ZM147.728 478.5L145.138 471.444H146.538L148.4 476.806L150.262 471.444H151.662L149.072 478.5H147.728ZM155.755 478.612C153.571 478.612 152.227 476.89 152.227 474.93C152.227 472.956 153.459 471.332 155.629 471.332C157.799 471.332 158.961 472.886 158.961 474.678C158.961 474.86 158.947 475.098 158.933 475.224H153.557C153.669 476.54 154.537 477.45 155.755 477.45C156.791 477.45 157.463 477.002 157.659 476.204H159.017C158.779 477.66 157.505 478.612 155.755 478.612ZM153.599 474.174H157.589C157.505 473.096 156.791 472.424 155.629 472.424C154.537 472.424 153.809 473.026 153.599 474.174ZM167.453 478.5C166.025 478.5 165.115 477.632 165.115 476.19V469.232H166.473V471.444H168.559V472.62H166.473V476.148C166.473 476.904 166.879 477.324 167.565 477.324H168.559V478.5H167.453ZM160.537 478.5V471.444H161.895V472.802C162.217 471.864 162.777 471.444 163.771 471.444H164.485V472.62H163.603C162.315 472.62 161.895 473.768 161.895 475.308V478.5H160.537Z" fill="#27272A"/>
<path d="M84.5 494.5H251.5" stroke="#E4E4E7"/>
<circle cx="86.5" cy="504.5" r="2" fill="#71717B"/>
<path d="M93.52 516.5V508.1H96.532C98.116 508.1 99.088 508.904 99.088 510.14C99.088 511.04 98.62 511.616 97.972 511.904C98.848 512.204 99.472 512.876 99.472 514.064C99.472 515.552 98.452 516.5 96.724 516.5H93.52ZM96.544 515.576C97.78 515.576 98.44 515.036 98.44 514.04C98.44 513.032 97.78 512.492 96.544 512.492H94.54V515.576H96.544ZM96.496 511.58C97.516 511.58 98.068 511.148 98.068 510.284C98.068 509.42 97.516 509 96.508 509H94.54V511.58H96.496ZM104.668 516.596C102.304 516.596 100.552 514.772 100.552 512.3C100.552 509.828 102.304 508.004 104.668 508.004C107.044 508.004 108.796 509.828 108.796 512.3C108.796 514.772 107.044 516.596 104.668 516.596ZM104.668 515.672C106.432 515.672 107.74 514.232 107.74 512.3C107.74 510.368 106.432 508.928 104.668 508.928C102.916 508.928 101.608 510.368 101.608 512.3C101.608 514.232 102.916 515.672 104.668 515.672ZM110.36 516.5V508.1H115.616V509.024H111.392V511.796H114.836V512.72H111.392V516.5H110.36ZM121.462 516.596C120.19 516.596 119.362 515.864 119.362 514.772C119.362 513.596 120.31 512.852 121.774 512.852H123.166C123.43 512.852 123.526 512.756 123.526 512.564C123.526 511.736 122.938 511.172 121.906 511.172C121.018 511.172 120.322 511.724 120.274 512.384H119.362C119.47 511.208 120.574 510.356 121.93 510.356C123.502 510.356 124.486 511.256 124.486 512.6V516.5H123.526V515.444C123.202 516.14 122.398 516.596 121.462 516.596ZM121.606 515.78C122.818 515.78 123.526 515.024 123.526 513.776V513.632H121.834C120.934 513.632 120.346 514.052 120.346 514.76C120.346 515.372 120.838 515.78 121.606 515.78ZM128.709 516.596C126.849 516.596 125.817 515.24 125.817 513.476C125.817 511.712 126.849 510.356 128.721 510.356C129.573 510.356 130.365 510.788 130.737 511.436V507.968H131.697V516.5H130.737V515.504C130.365 516.152 129.573 516.596 128.709 516.596ZM128.817 515.732C130.029 515.732 130.821 514.844 130.821 513.476C130.821 512.108 130.029 511.22 128.817 511.22C127.605 511.22 126.812 512.108 126.812 513.476C126.812 514.844 127.605 515.732 128.817 515.732ZM135.445 516.596C134.029 516.596 133.165 515.852 133.069 514.568H133.969C134.041 515.324 134.581 515.768 135.445 515.768C136.225 515.768 136.753 515.384 136.753 514.772C136.753 513.176 133.213 514.532 133.213 512.144C133.213 511.076 134.101 510.356 135.349 510.356C136.717 510.356 137.557 511.04 137.653 512.204H136.741C136.669 511.568 136.129 511.16 135.361 511.16C134.713 511.16 134.149 511.496 134.149 512.084C134.149 513.608 137.689 512.216 137.689 514.736C137.689 515.864 136.849 516.596 135.445 516.596ZM144.386 515V512.66H142.046V511.82H144.386V509.48H145.226V511.82H147.566V512.66H145.226V515H144.386ZM154.974 516.596C153.186 516.596 151.902 515.288 151.902 513.476C151.902 511.652 153.186 510.356 154.974 510.356C156.774 510.356 158.058 511.652 158.058 513.476C158.058 515.288 156.774 516.596 154.974 516.596ZM154.974 515.732C156.222 515.732 157.074 514.796 157.074 513.476C157.074 512.156 156.222 511.22 154.974 511.22C153.738 511.22 152.886 512.156 152.886 513.476C152.886 514.796 153.738 515.732 154.974 515.732ZM161.643 516.596C160.275 516.596 159.387 515.624 159.387 514.148V510.452H160.347V513.992C160.347 515.024 160.947 515.72 161.859 515.72C162.891 515.72 163.635 514.892 163.635 513.716V510.452H164.595V516.5H163.635V515.336C163.311 516.176 162.567 516.596 161.643 516.596ZM168.808 516.5C167.644 516.5 166.912 515.78 166.912 514.604V511.304H165.652V510.452H166.912V508.52H167.872V510.452H169.732V511.304H167.872V514.58C167.872 515.252 168.256 515.648 168.844 515.648H169.732V516.5H168.808ZM173.931 516.596C173.079 516.596 172.275 516.152 171.903 515.504V516.5H170.943V507.968H171.903V511.436C172.287 510.788 173.079 510.356 173.931 510.356C175.803 510.356 176.835 511.712 176.835 513.476C176.835 515.24 175.803 516.596 173.931 516.596ZM173.835 515.732C175.047 515.732 175.839 514.844 175.839 513.476C175.839 512.108 175.047 511.22 173.835 511.22C172.611 511.22 171.819 512.108 171.819 513.476C171.819 514.844 172.611 515.732 173.835 515.732ZM180.896 516.596C179.108 516.596 177.824 515.288 177.824 513.476C177.824 511.652 179.108 510.356 180.896 510.356C182.696 510.356 183.98 511.652 183.98 513.476C183.98 515.288 182.696 516.596 180.896 516.596ZM180.896 515.732C182.144 515.732 182.996 514.796 182.996 513.476C182.996 512.156 182.144 511.22 180.896 511.22C179.66 511.22 178.808 512.156 178.808 513.476C178.808 514.796 179.66 515.732 180.896 515.732ZM187.565 516.596C186.197 516.596 185.309 515.624 185.309 514.148V510.452H186.269V513.992C186.269 515.024 186.869 515.72 187.781 515.72C188.813 515.72 189.557 514.892 189.557 513.716V510.452H190.517V516.5H189.557V515.336C189.233 516.176 188.489 516.596 187.565 516.596ZM192.342 516.5V510.452H193.302V511.616C193.626 510.776 194.37 510.356 195.306 510.356C196.674 510.356 197.562 511.328 197.562 512.804V516.5H196.602V512.96C196.602 511.928 196.002 511.232 195.09 511.232C194.046 511.232 193.302 512.06 193.302 513.236V516.5H192.342ZM201.787 516.596C199.927 516.596 198.895 515.24 198.895 513.476C198.895 511.712 199.927 510.356 201.799 510.356C202.651 510.356 203.443 510.788 203.815 511.436V507.968H204.775V516.5H203.815V515.504C203.443 516.152 202.651 516.596 201.787 516.596ZM201.895 515.732C203.107 515.732 203.899 514.844 203.899 513.476C203.899 512.108 203.107 511.22 201.895 511.22C200.683 511.22 199.891 512.108 199.891 513.476C199.891 514.844 200.683 515.732 201.895 515.732ZM212.474 516.596C211.622 516.596 210.818 516.152 210.446 515.504V516.5H209.486V507.968H210.446V511.436C210.83 510.788 211.622 510.356 212.474 510.356C214.346 510.356 215.378 511.712 215.378 513.476C215.378 515.24 214.346 516.596 212.474 516.596ZM212.378 515.732C213.59 515.732 214.382 514.844 214.382 513.476C214.382 512.108 213.59 511.22 212.378 511.22C211.154 511.22 210.362 512.108 210.362 513.476C210.362 514.844 211.154 515.732 212.378 515.732ZM216.787 516.5V507.968H217.747V516.5H216.787ZM219.588 516.5V510.452H220.548V516.5H219.588ZM219.516 507.968H220.62V509.312H219.516V507.968ZM224.777 516.5C223.613 516.5 222.881 515.78 222.881 514.604V511.304H221.621V510.452H222.881V508.52H223.841V510.452H225.701V511.304H223.841V514.58C223.841 515.252 224.225 515.648 224.813 515.648H225.701V516.5H224.777ZM226.396 516.5V515.648L230.14 511.304H226.576V510.452H231.256V511.304L227.548 515.648H231.424V516.5H226.396Z" fill="#71717B"/>
<path d="M442 433H613C619.351 433 624.5 438.149 624.5 444.5V494.5C624.5 500.851 619.351 506 613 506H442C435.649 506 430.5 500.851 430.5 494.5V444.5C430.5 438.347 435.332 433.323 441.408 433.015L442 433Z" fill="white"/>
<path d="M442 433H613C619.351 433 624.5 438.149 624.5 444.5V494.5C624.5 500.851 619.351 506 613 506H442C435.649 506 430.5 500.851 430.5 494.5V444.5C430.5 438.347 435.332 433.323 441.408 433.015L442 433Z" stroke="#00C950"/>
<rect x="444.5" y="447" width="25" height="25" rx="5.5" fill="#FFFBEB"/>
<rect x="444.5" y="447" width="25" height="25" rx="5.5" stroke="#FE9A00"/>
<path d="M458.25 456.75V464.292C458.25 464.374 458.27 464.455 458.309 464.528C458.348 464.6 458.404 464.662 458.472 464.708L459.16 465.166C459.227 465.21 459.303 465.238 459.383 465.247C459.462 465.255 459.543 465.245 459.618 465.216C459.693 465.187 459.759 465.141 459.812 465.08C459.865 465.02 459.903 464.948 459.922 464.871L460.75 461.75" stroke="#FE9A00" stroke-linecap="round" stroke-linejoin="round"/>
<path d="M450.75 464.25C450.75 464.345 450.777 464.438 450.828 464.518C450.88 464.599 450.953 464.663 451.039 464.703C451.125 464.743 451.221 464.758 451.316 464.745C451.41 464.733 451.499 464.694 451.572 464.632C454.847 461.885 458.25 461.75 458.25 461.75H460.75C461.413 461.75 462.049 461.486 462.518 461.018C462.987 460.549 463.25 459.913 463.25 459.25C463.25 458.587 462.987 457.951 462.518 457.482C462.049 457.013 461.413 456.75 460.75 456.75H458.25C458.25 456.75 454.847 456.615 451.572 453.868C451.499 453.807 451.41 453.767 451.316 453.755C451.222 453.742 451.126 453.757 451.039 453.797C450.953 453.837 450.88 453.901 450.829 453.981C450.777 454.061 450.75 454.155 450.75 454.25V464.25Z" stroke="#FE9A00" stroke-linecap="round" stroke-linejoin="round"/>
<path d="M478.14 464.5L481.99 454.7H483.334L487.184 464.5H485.672L484.734 462.008H480.59L479.652 464.5H478.14ZM481.066 460.734H484.258L482.662 456.52L481.066 460.734ZM488.318 464.5V457.444H489.676V458.69C489.97 457.892 490.74 457.332 491.79 457.332C492.868 457.332 493.764 457.864 494.044 458.788C494.338 457.948 495.318 457.332 496.34 457.332C497.866 457.332 498.818 458.382 498.818 460.02V464.5H497.46V460.398C497.46 459.278 496.9 458.522 495.962 458.522C494.884 458.522 494.24 459.53 494.24 460.65V464.5H492.882V460.398C492.882 459.278 492.322 458.522 491.398 458.522C490.32 458.522 489.676 459.53 489.676 460.65V464.5H488.318ZM500.705 467.356V457.444H502.063V458.48C502.497 457.78 503.379 457.332 504.317 457.332C506.445 457.332 507.663 458.886 507.663 460.972C507.663 463.058 506.445 464.612 504.331 464.612C503.379 464.612 502.483 464.15 502.063 463.45V467.356H500.705ZM504.121 463.422C505.423 463.422 506.291 462.442 506.291 460.972C506.291 459.502 505.423 458.522 504.121 458.522C502.819 458.522 501.951 459.502 501.951 460.972C501.951 462.442 502.819 463.422 504.121 463.422ZM509.209 464.5V454.49H510.567V464.5H509.209ZM512.545 464.5V457.444H513.903V464.5H512.545ZM512.461 454.49H513.973V456.198H512.461V454.49ZM516.525 464.5V458.62H515.083V457.444H516.525V456.758C516.525 455.372 517.435 454.49 518.849 454.49H520.025V455.666H518.961C518.303 455.666 517.883 456.1 517.883 456.8V457.444H520.025V458.62H517.883V464.5H516.525ZM521.943 467.356L522.937 464.612L520.375 457.444H521.761L523.595 462.848L525.415 457.444H526.815L523.273 467.356H521.943Z" fill="#27272A"/>
<path d="M444 480.5H611" stroke="#E4E4E7"/>
<circle cx="446" cy="490.5" r="2" fill="#71717B"/>
<path d="M455.708 502.596C453.692 502.596 452.6 501.468 452.492 499.752H453.5C453.608 500.916 454.28 501.672 455.708 501.672C456.872 501.672 457.688 501.228 457.688 500.208C457.688 497.952 452.768 499.344 452.768 496.236C452.768 494.904 453.944 494.004 455.624 494.004C457.304 494.004 458.468 494.976 458.588 496.488H457.58C457.484 495.54 456.752 494.928 455.624 494.928C454.484 494.928 453.812 495.432 453.812 496.236C453.812 498.48 458.756 496.956 458.756 500.208C458.756 501.732 457.472 502.596 455.708 502.596ZM462.662 502.596C460.754 502.596 459.722 501.096 459.722 499.476C459.722 497.856 460.754 496.356 462.662 496.356C464.018 496.356 465.23 497.148 465.41 498.492H464.462C464.342 497.76 463.586 497.22 462.674 497.22C461.354 497.22 460.718 498.24 460.718 499.476C460.718 500.712 461.366 501.732 462.674 501.732C463.586 501.732 464.246 501.276 464.462 500.544H465.398C465.194 501.78 464.198 502.596 462.662 502.596ZM468.587 502.596C467.315 502.596 466.487 501.864 466.487 500.772C466.487 499.596 467.435 498.852 468.899 498.852H470.291C470.555 498.852 470.651 498.756 470.651 498.564C470.651 497.736 470.063 497.172 469.031 497.172C468.143 497.172 467.447 497.724 467.399 498.384H466.487C466.595 497.208 467.699 496.356 469.055 496.356C470.627 496.356 471.611 497.256 471.611 498.6V502.5H470.651V501.444C470.327 502.14 469.523 502.596 468.587 502.596ZM468.731 501.78C469.943 501.78 470.651 501.024 470.651 499.776V499.632H468.959C468.059 499.632 467.471 500.052 467.471 500.76C467.471 501.372 467.963 501.78 468.731 501.78ZM473.35 502.5V493.968H474.31V502.5H473.35ZM478.718 502.596C476.93 502.596 475.73 501.168 475.73 499.428C475.73 497.664 476.834 496.356 478.61 496.356C480.374 496.356 481.43 497.58 481.43 499.188C481.43 499.332 481.418 499.476 481.406 499.608H476.678C476.75 500.856 477.578 501.744 478.718 501.744C479.702 501.744 480.326 501.312 480.506 500.556H481.49C481.286 501.792 480.218 502.596 478.718 502.596ZM476.726 498.828H480.446C480.362 497.808 479.69 497.172 478.61 497.172C477.59 497.172 476.906 497.76 476.726 498.828ZM485.361 502.596C483.501 502.596 482.469 501.24 482.469 499.476C482.469 497.712 483.501 496.356 485.373 496.356C486.225 496.356 487.017 496.788 487.389 497.436V493.968H488.349V502.5H487.389V501.504C487.017 502.152 486.225 502.596 485.361 502.596ZM485.469 501.732C486.681 501.732 487.473 500.844 487.473 499.476C487.473 498.108 486.681 497.22 485.469 497.22C484.257 497.22 483.465 498.108 483.465 499.476C483.465 500.844 484.257 501.732 485.469 501.732ZM495.544 502.596C493.684 502.596 492.652 501.24 492.652 499.476C492.652 497.712 493.684 496.356 495.556 496.356C496.408 496.356 497.2 496.788 497.572 497.436V493.968H498.532V502.5H497.572V501.504C497.2 502.152 496.408 502.596 495.544 502.596ZM495.652 501.732C496.864 501.732 497.656 500.844 497.656 499.476C497.656 498.108 496.864 497.22 495.652 497.22C494.44 497.22 493.648 498.108 493.648 499.476C493.648 500.844 494.44 501.732 495.652 501.732ZM500.361 502.5V496.452H501.321V502.5H500.361ZM500.289 493.968H501.393V495.312H500.289V493.968ZM505.082 502.596C503.666 502.596 502.802 501.852 502.706 500.568H503.606C503.678 501.324 504.218 501.768 505.082 501.768C505.862 501.768 506.39 501.384 506.39 500.772C506.39 499.176 502.85 500.532 502.85 498.144C502.85 497.076 503.738 496.356 504.986 496.356C506.354 496.356 507.194 497.04 507.29 498.204H506.378C506.306 497.568 505.766 497.16 504.998 497.16C504.35 497.16 503.786 497.496 503.786 498.084C503.786 499.608 507.326 498.216 507.326 500.736C507.326 501.864 506.486 502.596 505.082 502.596ZM511.116 502.5C509.952 502.5 509.22 501.78 509.22 500.604V497.304H507.96V496.452H509.22V494.52H510.18V496.452H512.04V497.304H510.18V500.58C510.18 501.252 510.564 501.648 511.152 501.648H512.04V502.5H511.116ZM513.252 502.5V496.452H514.212V497.676C514.476 496.848 514.968 496.452 515.856 496.452H516.624V497.304H515.796C514.572 497.304 514.212 498.408 514.212 499.836V502.5H513.252ZM517.705 502.5V496.452H518.665V502.5H517.705ZM517.633 493.968H518.737V495.312H517.633V493.968ZM523.494 502.596C522.642 502.596 521.838 502.152 521.466 501.504V502.5H520.506V493.968H521.466V497.436C521.85 496.788 522.642 496.356 523.494 496.356C525.366 496.356 526.398 497.712 526.398 499.476C526.398 501.24 525.366 502.596 523.494 502.596ZM523.398 501.732C524.61 501.732 525.402 500.844 525.402 499.476C525.402 498.108 524.61 497.22 523.398 497.22C522.174 497.22 521.382 498.108 521.382 499.476C521.382 500.844 522.174 501.732 523.398 501.732ZM529.991 502.596C528.623 502.596 527.735 501.624 527.735 500.148V496.452H528.695V499.992C528.695 501.024 529.295 501.72 530.207 501.72C531.239 501.72 531.983 500.892 531.983 499.716V496.452H532.943V502.5H531.983V501.336C531.659 502.176 530.915 502.596 529.991 502.596ZM537.155 502.5C535.991 502.5 535.259 501.78 535.259 500.604V497.304H533.999V496.452H535.259V494.52H536.219V496.452H538.079V497.304H536.219V500.58C536.219 501.252 536.603 501.648 537.191 501.648H538.079V502.5H537.155ZM539.291 502.5V496.452H540.251V502.5H539.291ZM539.219 493.968H540.323V495.312H539.219V493.968ZM544.744 502.596C542.956 502.596 541.672 501.288 541.672 499.476C541.672 497.652 542.956 496.356 544.744 496.356C546.544 496.356 547.828 497.652 547.828 499.476C547.828 501.288 546.544 502.596 544.744 502.596ZM544.744 501.732C545.992 501.732 546.844 500.796 546.844 499.476C546.844 498.156 545.992 497.22 544.744 497.22C543.508 497.22 542.656 498.156 542.656 499.476C542.656 500.796 543.508 501.732 544.744 501.732ZM549.228 502.5V496.452H550.188V497.616C550.512 496.776 551.256 496.356 552.192 496.356C553.56 496.356 554.448 497.328 554.448 498.804V502.5H553.488V498.96C553.488 497.928 552.888 497.232 551.976 497.232C550.932 497.232 550.188 498.06 550.188 499.236V502.5H549.228Z" fill="#71717B"/>
<defs>
<clipPath id="clip0_11181_3057">
<rect width="16" height="16" fill="white" transform="translate(89.5 465.5)"/>
</clipPath>
</defs>
</svg>
